<svg width="24" height="25" viewBox="0 0 24 25" fill="none" xmlns="http://www.w3.org/2000/svg">
<g clip-path="url(#clip0_114_560)">
<path fill-rule="evenodd" clip-rule="evenodd" d="M12 14.622L17.303 19.925C17.5844 20.2064 17.966 20.3645 18.364 20.3645C18.762 20.3645 19.1436 20.2064 19.425 19.925C19.7064 19.6436 19.8645 19.262 19.8645 18.864C19.8645 18.466 19.7064 18.0844 19.425 17.803L14.12 12.5L19.424 7.197C19.5633 7.05767 19.6737 6.89227 19.7491 6.71025C19.8244 6.52822 19.8632 6.33315 19.8631 6.13615C19.8631 5.93915 19.8242 5.74408 19.7488 5.5621C19.6734 5.38011 19.5628 5.21477 19.4235 5.0755C19.2842 4.93623 19.1188 4.82577 18.9367 4.75043C18.7547 4.67508 18.5596 4.63633 18.3626 4.63637C18.1656 4.63642 17.9706 4.67527 17.7886 4.7507C17.6066 4.82613 17.4413 4.93667 17.302 5.076L12 10.379L6.697 5.076C6.5587 4.93267 6.39323 4.81832 6.21027 4.73962C6.0273 4.66092 5.83049 4.61945 5.63132 4.61763C5.43215 4.6158 5.23462 4.65366 5.05024 4.729C4.86586 4.80433 4.69833 4.91563 4.55742 5.05641C4.41652 5.19718 4.30506 5.3646 4.22955 5.54891C4.15404 5.73322 4.116 5.93072 4.11763 6.12989C4.11927 6.32906 4.16056 6.52591 4.23908 6.70895C4.31761 6.89199 4.4318 7.05756 4.575 7.196L9.88 12.5L4.576 17.804C4.4328 17.9424 4.31861 18.108 4.24008 18.2911C4.16156 18.4741 4.12027 18.6709 4.11863 18.8701C4.117 19.0693 4.15504 19.2668 4.23055 19.4511C4.30606 19.6354 4.41752 19.8028 4.55842 19.9436C4.69933 20.0844 4.86686 20.1957 5.05124 20.271C5.23562 20.3463 5.43315 20.3842 5.63232 20.3824C5.83149 20.3805 6.0283 20.3391 6.21127 20.2604C6.39423 20.1817 6.5597 20.0673 6.698 19.924L12 14.622Z" fill="white"/>
</g>
<defs>
<clipPath id="clip0_114_560">
<rect width="24" height="24" fill="white" transform="translate(0 0.5)"/>
</clipPath>
</defs>
</svg>
