<svg width="15" height="18" viewBox="0 0 15 18" fill="none" xmlns="http://www.w3.org/2000/svg">
<path d="M15 1.5V16.5C15 16.8978 14.8563 17.2794 14.6006 17.5607C14.3449 17.842 13.998 18 13.6364 18H10.2273C9.86561 18 9.51877 17.842 9.26304 17.5607C9.00731 17.2794 8.86364 16.8978 8.86364 16.5V1.5C8.86364 1.10218 9.00731 0.720644 9.26304 0.43934C9.51877 0.158035 9.86561 0 10.2273 0H13.6364C13.998 0 14.3449 0.158035 14.6006 0.43934C14.8563 0.720644 15 1.10218 15 1.5ZM4.77273 0H1.36364C1.00198 0 0.655131 0.158035 0.3994 0.43934C0.143668 0.720644 0 1.10218 0 1.5V16.5C0 16.8978 0.143668 17.2794 0.3994 17.5607C0.655131 17.842 1.00198 18 1.36364 18H4.77273C5.13439 18 5.48123 17.842 5.73696 17.5607C5.9927 17.2794 6.13636 16.8978 6.13636 16.5V1.5C6.13636 1.10218 5.9927 0.720644 5.73696 0.43934C5.48123 0.158035 5.13439 0 4.77273 0Z" fill="white"/>
</svg>
