<svg width="24" height="24" viewBox="0 0 24 24" fill="none" xmlns="http://www.w3.org/2000/svg">
<g clip-path="url(#clip0_304_873)">
<path d="M15.542 15.0925L14.9969 15.667C14.9969 15.667 13.6996 17.0318 10.1598 13.3053C6.61994 9.57876 7.91728 8.21397 7.91728 8.21397L8.25988 7.85121C9.1068 6.9608 9.18706 5.53005 8.44795 4.4849L6.93859 2.35019C6.02338 1.05643 4.25647 0.885198 3.2083 1.9887L1.32758 3.96739C0.808888 4.51534 0.461494 5.2231 0.503421 6.0095C0.611233 8.02244 1.47133 12.3515 6.26776 17.4022C11.3553 22.7574 16.1289 22.9704 18.0803 22.7777C18.6985 22.7168 19.2351 22.3845 19.6676 21.9278L21.3686 20.1369C22.5186 18.9281 22.1952 16.8543 20.7241 16.0082L18.4361 14.6904C17.4706 14.1361 16.2966 14.2984 15.542 15.0925Z" fill="white"/>
</g>
<defs>
<clipPath id="clip0_304_873">
<rect width="23" height="23" fill="white" transform="translate(0.5 0.540649)"/>
</clipPath>
</defs>
</svg>
